<svg id="visual" viewBox="0 0 900 300" width="900" height="300" xmlns="http://www.w3.org/2000/svg" xmlns:xlink="http://www.w3.org/1999/xlink" version="1.1"><path d="M0 193L8.8 179.5C17.7 166 35.3 139 53 130C70.7 121 88.3 130 106 124C123.7 118 141.3 97 159 82C176.7 67 194.3 58 212 73C229.7 88 247.3 127 265 149C282.7 171 300.3 176 318 167C335.7 158 353.3 135 371 120C388.7 105 406.3 98 423.8 91.5C441.3 85 458.7 79 476.2 86C493.7 93 511.3 113 529 129C546.7 145 564.3 157 582 145.5C599.7 134 617.3 99 635 80C652.7 61 670.3 58 688 56.5C705.7 55 723.3 55 741 63.5C758.7 72 776.3 89 794 90C811.7 91 829.3 76 847 68.5C864.7 61 882.3 61 891.2 61L900 61L900 0L891.2 0C882.3 0 864.7 0 847 0C829.3 0 811.7 0 794 0C776.3 0 758.7 0 741 0C723.3 0 705.7 0 688 0C670.3 0 652.7 0 635 0C617.3 0 599.7 0 582 0C564.3 0 546.7 0 529 0C511.3 0 493.7 0 476.2 0C458.7 0 441.3 0 423.8 0C406.3 0 388.7 0 371 0C353.3 0 335.7 0 318 0C300.3 0 282.7 0 265 0C247.3 0 229.7 0 212 0C194.3 0 176.7 0 159 0C141.3 0 123.7 0 106 0C88.3 0 70.7 0 53 0C35.3 0 17.7 0 8.8 0L0 0Z" fill="#e5eaf5"></path><path d="M0 250L8.8 240.5C17.7 231 35.3 212 53 209C70.7 206 88.3 219 106 214C123.7 209 141.3 186 159 174C176.7 162 194.3 161 212 170.5C229.7 180 247.3 200 265 210.5C282.7 221 300.3 222 318 216C335.7 210 353.3 197 371 183C388.7 169 406.3 154 423.8 145C441.3 136 458.7 133 476.2 142C493.7 151 511.3 172 529 192C546.7 212 564.3 231 582 216.5C599.7 202 617.3 154 635 130C652.7 106 670.3 106 688 109C705.7 112 723.3 118 741 130.5C758.7 143 776.3 162 794 164C811.7 166 829.3 151 847 145.5C864.7 140 882.3 144 891.2 146L900 148L900 59L891.2 59C882.3 59 864.7 59 847 66.5C829.3 74 811.7 89 794 88C776.3 87 758.7 70 741 61.5C723.3 53 705.7 53 688 54.5C670.3 56 652.7 59 635 78C617.3 97 599.7 132 582 143.5C564.3 155 546.7 143 529 127C511.3 111 493.7 91 476.2 84C458.7 77 441.3 83 423.8 89.5C406.3 96 388.7 103 371 118C353.3 133 335.7 156 318 165C300.3 174 282.7 169 265 147C247.3 125 229.7 86 212 71C194.3 56 176.7 65 159 80C141.3 95 123.7 116 106 122C88.3 128 70.7 119 53 128C35.3 137 17.7 164 8.8 177.5L0 191Z" fill="#7c99df"></path><path d="M0 301L8.8 301C17.7 301 35.3 301 53 301C70.7 301 88.3 301 106 301C123.7 301 141.3 301 159 301C176.7 301 194.3 301 212 301C229.7 301 247.3 301 265 301C282.7 301 300.3 301 318 301C335.7 301 353.3 301 371 301C388.7 301 406.3 301 423.8 301C441.3 301 458.7 301 476.2 301C493.7 301 511.3 301 529 301C546.7 301 564.3 301 582 301C599.7 301 617.3 301 635 301C652.7 301 670.3 301 688 301C705.7 301 723.3 301 741 301C758.7 301 776.3 301 794 301C811.7 301 829.3 301 847 301C864.7 301 882.3 301 891.2 301L900 301L900 146L891.2 144C882.3 142 864.7 138 847 143.5C829.3 149 811.7 164 794 162C776.3 160 758.7 141 741 128.5C723.3 116 705.7 110 688 107C670.3 104 652.7 104 635 128C617.3 152 599.7 200 582 214.5C564.3 229 546.7 210 529 190C511.3 170 493.7 149 476.2 140C458.7 131 441.3 134 423.8 143C406.3 152 388.7 167 371 181C353.3 195 335.7 208 318 214C300.3 220 282.7 219 265 208.5C247.3 198 229.7 178 212 168.5C194.3 159 176.7 160 159 172C141.3 184 123.7 207 106 212C88.3 217 70.7 204 53 207C35.3 210 17.7 229 8.8 238.5L0 248Z" fill="#e5eaf5"></path></svg>