<svg id="visual" viewBox="0 0 900 300" width="900" height="300" xmlns="http://www.w3.org/2000/svg" xmlns:xlink="http://www.w3.org/1999/xlink" version="1.1"><path d="M0 248L16.7 246.8C33.3 245.7 66.7 243.3 100 239.3C133.3 235.3 166.7 229.7 200 228.3C233.3 227 266.7 230 300 231.3C333.3 232.7 366.7 232.3 400 231.7C433.3 231 466.7 230 500 232C533.3 234 566.7 239 600 242.3C633.3 245.7 666.7 247.3 700 247C733.3 246.7 766.7 244.3 800 242C833.3 239.7 866.7 237.3 883.3 236.2L900 235L900 301L883.3 301C866.7 301 833.3 301 800 301C766.7 301 733.3 301 700 301C666.7 301 633.3 301 600 301C566.7 301 533.3 301 500 301C466.7 301 433.3 301 400 301C366.7 301 333.3 301 300 301C266.7 301 233.3 301 200 301C166.7 301 133.3 301 100 301C66.7 301 33.3 301 16.7 301L0 301Z" fill="#111725"></path><path d="M0 241L16.7 241.3C33.3 241.7 66.7 242.3 100 245.3C133.3 248.3 166.7 253.7 200 256.2C233.3 258.7 266.7 258.3 300 256.5C333.3 254.7 366.7 251.3 400 250.3C433.3 249.3 466.7 250.7 500 252.8C533.3 255 566.7 258 600 256.8C633.3 255.7 666.7 250.3 700 246C733.3 241.7 766.7 238.3 800 240.7C833.3 243 866.7 251 883.3 255L900 259L900 301L883.3 301C866.7 301 833.3 301 800 301C766.7 301 733.3 301 700 301C666.7 301 633.3 301 600 301C566.7 301 533.3 301 500 301C466.7 301 433.3 301 400 301C366.7 301 333.3 301 300 301C266.7 301 233.3 301 200 301C166.7 301 133.3 301 100 301C66.7 301 33.3 301 16.7 301L0 301Z" fill="#144492"></path><path d="M0 268L16.7 266.7C33.3 265.3 66.7 262.7 100 260.8C133.3 259 166.7 258 200 259.2C233.3 260.3 266.7 263.7 300 262.7C333.3 261.7 366.7 256.3 400 255C433.3 253.7 466.7 256.3 500 259.3C533.3 262.3 566.7 265.7 600 264.8C633.3 264 666.7 259 700 259.3C733.3 259.7 766.7 265.3 800 265.3C833.3 265.3 866.7 259.7 883.3 256.8L900 254L900 301L883.3 301C866.7 301 833.3 301 800 301C766.7 301 733.3 301 700 301C666.7 301 633.3 301 600 301C566.7 301 533.3 301 500 301C466.7 301 433.3 301 400 301C366.7 301 333.3 301 300 301C266.7 301 233.3 301 200 301C166.7 301 133.3 301 100 301C66.7 301 33.3 301 16.7 301L0 301Z" fill="#2b5fda"></path><path d="M0 268L16.7 270.5C33.3 273 66.7 278 100 280.3C133.3 282.7 166.7 282.3 200 279.5C233.3 276.7 266.7 271.3 300 268C333.3 264.7 366.7 263.3 400 265.7C433.3 268 466.7 274 500 275.2C533.3 276.3 566.7 272.7 600 269.5C633.3 266.3 666.7 263.7 700 264.7C733.3 265.7 766.7 270.3 800 273.8C833.3 277.3 866.7 279.7 883.3 280.8L900 282L900 301L883.3 301C866.7 301 833.3 301 800 301C766.7 301 733.3 301 700 301C666.7 301 633.3 301 600 301C566.7 301 533.3 301 500 301C466.7 301 433.3 301 400 301C366.7 301 333.3 301 300 301C266.7 301 233.3 301 200 301C166.7 301 133.3 301 100 301C66.7 301 33.3 301 16.7 301L0 301Z" fill="#144492"></path><path d="M0 280L16.7 282.2C33.3 284.3 66.7 288.7 100 289.5C133.3 290.3 166.7 287.7 200 287.7C233.3 287.7 266.7 290.3 300 290C333.3 289.7 366.7 286.3 400 283.3C433.3 280.3 466.7 277.7 500 277.3C533.3 277 566.7 279 600 281.2C633.3 283.3 666.7 285.7 700 287.7C733.3 289.7 766.7 291.3 800 291.7C833.3 292 866.7 291 883.3 290.5L900 290L900 301L883.3 301C866.7 301 833.3 301 800 301C766.7 301 733.3 301 700 301C666.7 301 633.3 301 600 301C566.7 301 533.3 301 500 301C466.7 301 433.3 301 400 301C366.7 301 333.3 301 300 301C266.7 301 233.3 301 200 301C166.7 301 133.3 301 100 301C66.7 301 33.3 301 16.7 301L0 301Z" fill="#111725"></path></svg>