<svg id="visual" viewBox="0 0 900 600" width="900" height="600" xmlns="http://www.w3.org/2000/svg" xmlns:xlink="http://www.w3.org/1999/xlink" version="1.1"><path d="M0 228L13.7 239.2C27.3 250.3 54.7 272.7 82 274.5C109.3 276.3 136.7 257.7 163.8 243.8C191 230 218 221 245.2 228.7C272.3 236.3 299.7 260.7 327 264.7C354.3 268.7 381.7 252.3 409 242.7C436.3 233 463.7 230 491 225.2C518.3 220.3 545.7 213.7 573 220.5C600.3 227.3 627.7 247.7 654.8 258.2C682 268.7 709 269.3 736.2 272.8C763.3 276.3 790.7 282.7 818 283.2C845.3 283.7 872.7 278.3 886.3 275.7L900 273L900 0L886.3 0C872.7 0 845.3 0 818 0C790.7 0 763.3 0 736.2 0C709 0 682 0 654.8 0C627.7 0 600.3 0 573 0C545.7 0 518.3 0 491 0C463.7 0 436.3 0 409 0C381.7 0 354.3 0 327 0C299.7 0 272.3 0 245.2 0C218 0 191 0 163.8 0C136.7 0 109.3 0 82 0C54.7 0 27.3 0 13.7 0L0 0Z" fill="#e5eaf5"></path><path d="M0 208L13.7 207.2C27.3 206.3 54.7 204.7 82 200.3C109.3 196 136.7 189 163.8 189.7C191 190.3 218 198.7 245.2 202C272.3 205.3 299.7 203.7 327 194.7C354.3 185.7 381.7 169.3 409 169.2C436.3 169 463.7 185 491 193.8C518.3 202.7 545.7 204.3 573 205.5C600.3 206.7 627.7 207.3 654.8 198C682 188.7 709 169.3 736.2 167C763.3 164.7 790.7 179.3 818 192.3C845.3 205.3 872.7 216.7 886.3 222.3L900 228L900 0L886.3 0C872.7 0 845.3 0 818 0C790.7 0 763.3 0 736.2 0C709 0 682 0 654.8 0C627.7 0 600.3 0 573 0C545.7 0 518.3 0 491 0C463.7 0 436.3 0 409 0C381.7 0 354.3 0 327 0C299.7 0 272.3 0 245.2 0C218 0 191 0 163.8 0C136.7 0 109.3 0 82 0C54.7 0 27.3 0 13.7 0L0 0Z" fill="#a6baee"></path><path d="M0 92L13.7 97.5C27.3 103 54.7 114 82 114.3C109.3 114.7 136.7 104.3 163.8 107.8C191 111.3 218 128.7 245.2 136.2C272.3 143.7 299.7 141.3 327 142.3C354.3 143.3 381.7 147.7 409 149.3C436.3 151 463.7 150 491 151.5C518.3 153 545.7 157 573 148.8C600.3 140.7 627.7 120.3 654.8 119.3C682 118.3 709 136.7 736.2 145.8C763.3 155 790.7 155 818 155.5C845.3 156 872.7 157 886.3 157.5L900 158L900 0L886.3 0C872.7 0 845.3 0 818 0C790.7 0 763.3 0 736.2 0C709 0 682 0 654.8 0C627.7 0 600.3 0 573 0C545.7 0 518.3 0 491 0C463.7 0 436.3 0 409 0C381.7 0 354.3 0 327 0C299.7 0 272.3 0 245.2 0C218 0 191 0 163.8 0C136.7 0 109.3 0 82 0C54.7 0 27.3 0 13.7 0L0 0Z" fill="#6b8ae3"></path><path d="M0 58L13.7 63.5C27.3 69 54.7 80 82 87.8C109.3 95.7 136.7 100.3 163.8 95.7C191 91 218 77 245.2 69.8C272.3 62.7 299.7 62.3 327 66.5C354.3 70.7 381.7 79.3 409 83.7C436.3 88 463.7 88 491 83.2C518.3 78.3 545.7 68.7 573 61C600.3 53.3 627.7 47.7 654.8 54.8C682 62 709 82 736.2 91.2C763.3 100.3 790.7 98.7 818 96C845.3 93.3 872.7 89.7 886.3 87.8L900 86L900 0L886.3 0C872.7 0 845.3 0 818 0C790.7 0 763.3 0 736.2 0C709 0 682 0 654.8 0C627.7 0 600.3 0 573 0C545.7 0 518.3 0 491 0C463.7 0 436.3 0 409 0C381.7 0 354.3 0 327 0C299.7 0 272.3 0 245.2 0C218 0 191 0 163.8 0C136.7 0 109.3 0 82 0C54.7 0 27.3 0 13.7 0L0 0Z" fill="#255ad4"></path></svg>