<svg id="visual" viewBox="0 0 900 300" width="900" height="300" xmlns="http://www.w3.org/2000/svg" xmlns:xlink="http://www.w3.org/1999/xlink" version="1.1"><path d="M0 95L10 98.7C20 102.3 40 109.7 60 111.5C80 113.3 100 109.7 120 106.8C140 104 160 102 180 100.3C200 98.7 220 97.3 240 97.7C260 98 280 100 300 102.3C320 104.7 340 107.3 360 107C380 106.7 400 103.3 420 104.7C440 106 460 112 480 115.2C500 118.3 520 118.7 540 114.7C560 110.7 580 102.3 600 99.3C620 96.3 640 98.7 660 103.2C680 107.7 700 114.3 720 114.8C740 115.3 760 109.7 780 110C800 110.3 820 116.7 840 120C860 123.3 880 123.7 890 123.8L900 124L900 0L890 0C880 0 860 0 840 0C820 0 800 0 780 0C760 0 740 0 720 0C700 0 680 0 660 0C640 0 620 0 600 0C580 0 560 0 540 0C520 0 500 0 480 0C460 0 440 0 420 0C400 0 380 0 360 0C340 0 320 0 300 0C280 0 260 0 240 0C220 0 200 0 180 0C160 0 140 0 120 0C100 0 80 0 60 0C40 0 20 0 10 0L0 0Z" fill="#0a0f1a"></path><path d="M0 88L10 87.5C20 87 40 86 60 85.3C80 84.7 100 84.3 120 83.3C140 82.3 160 80.7 180 79C200 77.3 220 75.7 240 75.3C260 75 280 76 300 79.5C320 83 340 89 360 89.2C380 89.3 400 83.7 420 81C440 78.3 460 78.7 480 81C500 83.3 520 87.7 540 86C560 84.3 580 76.7 600 73.2C620 69.7 640 70.3 660 72.8C680 75.3 700 79.7 720 83.7C740 87.7 760 91.3 780 89.2C800 87 820 79 840 76.2C860 73.3 880 75.7 890 76.8L900 78L900 0L890 0C880 0 860 0 840 0C820 0 800 0 780 0C760 0 740 0 720 0C700 0 680 0 660 0C640 0 620 0 600 0C580 0 560 0 540 0C520 0 500 0 480 0C460 0 440 0 420 0C400 0 380 0 360 0C340 0 320 0 300 0C280 0 260 0 240 0C220 0 200 0 180 0C160 0 140 0 120 0C100 0 80 0 60 0C40 0 20 0 10 0L0 0Z" fill="#0d2b54"></path><path d="M0 62L10 61.3C20 60.7 40 59.3 60 57.3C80 55.3 100 52.7 120 53C140 53.3 160 56.7 180 57.8C200 59 220 58 240 57.7C260 57.3 280 57.7 300 55.3C320 53 340 48 360 45.8C380 43.7 400 44.3 420 47.2C440 50 460 55 480 58.2C500 61.3 520 62.7 540 60.2C560 57.7 580 51.3 600 48.7C620 46 640 47 660 46.7C680 46.3 700 44.7 720 47.2C740 49.7 760 56.3 780 57.2C800 58 820 53 840 50.7C860 48.3 880 48.7 890 48.8L900 49L900 0L890 0C880 0 860 0 840 0C820 0 800 0 780 0C760 0 740 0 720 0C700 0 680 0 660 0C640 0 620 0 600 0C580 0 560 0 540 0C520 0 500 0 480 0C460 0 440 0 420 0C400 0 380 0 360 0C340 0 320 0 300 0C280 0 260 0 240 0C220 0 200 0 180 0C160 0 140 0 120 0C100 0 80 0 60 0C40 0 20 0 10 0L0 0Z" fill="#0a4595"></path><path d="M0 28L10 27.2C20 26.3 40 24.7 60 26.3C80 28 100 33 120 33.8C140 34.7 160 31.3 180 30.2C200 29 220 30 240 29.2C260 28.3 280 25.7 300 24.5C320 23.3 340 23.7 360 24.7C380 25.7 400 27.3 420 29.8C440 32.3 460 35.7 480 35.8C500 36 520 33 540 32.5C560 32 580 34 600 34C620 34 640 32 660 30.5C680 29 700 28 720 28.7C740 29.3 760 31.7 780 31.8C800 32 820 30 840 29.7C860 29.3 880 30.7 890 31.3L900 32L900 0L890 0C880 0 860 0 840 0C820 0 800 0 780 0C760 0 740 0 720 0C700 0 680 0 660 0C640 0 620 0 600 0C580 0 560 0 540 0C520 0 500 0 480 0C460 0 440 0 420 0C400 0 380 0 360 0C340 0 320 0 300 0C280 0 260 0 240 0C220 0 200 0 180 0C160 0 140 0 120 0C100 0 80 0 60 0C40 0 20 0 10 0L0 0Z" fill="#2b5fda"></path></svg>