<svg id="visual" viewBox="0 0 350 250" width="350" height="250" xmlns="http://www.w3.org/2000/svg" xmlns:xlink="http://www.w3.org/1999/xlink" version="1.1"><path d="M0 64L7.3 61C14.7 58 29.3 52 44 54.5C58.7 57 73.3 68 87.8 68.5C102.3 69 116.7 59 131.2 62.7C145.7 66.3 160.3 83.7 175 88.7C189.7 93.7 204.3 86.3 219 77.7C233.7 69 248.3 59 262.8 64.3C277.3 69.7 291.7 90.3 306.2 102C320.7 113.7 335.3 116.3 342.7 117.7L350 119L350 0L342.7 0C335.3 0 320.7 0 306.2 0C291.7 0 277.3 0 262.8 0C248.3 0 233.7 0 219 0C204.3 0 189.7 0 175 0C160.3 0 145.7 0 131.2 0C116.7 0 102.3 0 87.8 0C73.3 0 58.7 0 44 0C29.3 0 14.7 0 7.3 0L0 0Z" fill="#0a0f1a"></path><path d="M0 114L7.3 108.2C14.7 102.3 29.3 90.7 44 89.3C58.7 88 73.3 97 87.8 101.2C102.3 105.3 116.7 104.7 131.2 108.5C145.7 112.3 160.3 120.7 175 122.7C189.7 124.7 204.3 120.3 219 117.8C233.7 115.3 248.3 114.7 262.8 123C277.3 131.3 291.7 148.7 306.2 156.2C320.7 163.7 335.3 161.3 342.7 160.2L350 159L350 117L342.7 115.7C335.3 114.3 320.7 111.7 306.2 100C291.7 88.3 277.3 67.7 262.8 62.3C248.3 57 233.7 67 219 75.7C204.3 84.3 189.7 91.7 175 86.7C160.3 81.7 145.7 64.3 131.2 60.7C116.7 57 102.3 67 87.8 66.5C73.3 66 58.7 55 44 52.5C29.3 50 14.7 56 7.3 59L0 62Z" fill="#0d2b54"></path><path d="M0 159L7.3 154.3C14.7 149.7 29.3 140.3 44 138.2C58.7 136 73.3 141 87.8 142.7C102.3 144.3 116.7 142.7 131.2 144.8C145.7 147 160.3 153 175 158.5C189.7 164 204.3 169 219 167.3C233.7 165.7 248.3 157.3 262.8 164.3C277.3 171.3 291.7 193.7 306.2 204.5C320.7 215.3 335.3 214.7 342.7 214.3L350 214L350 157L342.7 158.2C335.3 159.3 320.7 161.7 306.2 154.2C291.7 146.7 277.3 129.3 262.8 121C248.3 112.7 233.7 113.3 219 115.8C204.3 118.3 189.7 122.7 175 120.7C160.3 118.7 145.7 110.3 131.2 106.5C116.7 102.7 102.3 103.3 87.8 99.2C73.3 95 58.7 86 44 87.3C29.3 88.7 14.7 100.3 7.3 106.2L0 112Z" fill="#0a4595"></path><path d="M0 251L7.3 251C14.7 251 29.3 251 44 251C58.7 251 73.3 251 87.8 251C102.3 251 116.7 251 131.2 251C145.7 251 160.3 251 175 251C189.7 251 204.3 251 219 251C233.7 251 248.3 251 262.8 251C277.3 251 291.7 251 306.2 251C320.7 251 335.3 251 342.7 251L350 251L350 212L342.7 212.3C335.3 212.7 320.7 213.3 306.2 202.5C291.7 191.7 277.3 169.3 262.8 162.3C248.3 155.3 233.7 163.7 219 165.3C204.3 167 189.7 162 175 156.5C160.3 151 145.7 145 131.2 142.8C116.7 140.7 102.3 142.3 87.8 140.7C73.3 139 58.7 134 44 136.2C29.3 138.3 14.7 147.7 7.3 152.3L0 157Z" fill="#2b5fda"></path></svg>