<svg id="visual" viewBox="0 0 900 300" width="900" height="300" xmlns="http://www.w3.org/2000/svg" xmlns:xlink="http://www.w3.org/1999/xlink" version="1.1"><path d="M0 97L16.7 96C33.3 95 66.7 93 100 84C133.3 75 166.7 59 200 64C233.3 69 266.7 95 300 103C333.3 111 366.7 101 400 104C433.3 107 466.7 123 500 130C533.3 137 566.7 135 600 122.5C633.3 110 666.7 87 700 83C733.3 79 766.7 94 800 96C833.3 98 866.7 87 883.3 81.5L900 76L900 0L883.3 0C866.7 0 833.3 0 800 0C766.7 0 733.3 0 700 0C666.7 0 633.3 0 600 0C566.7 0 533.3 0 500 0C466.7 0 433.3 0 400 0C366.7 0 333.3 0 300 0C266.7 0 233.3 0 200 0C166.7 0 133.3 0 100 0C66.7 0 33.3 0 16.7 0L0 0Z" fill="#e5eaf5"></path><path d="M0 124L16.7 131C33.3 138 66.7 152 100 162.5C133.3 173 166.7 180 200 179C233.3 178 266.7 169 300 157.5C333.3 146 366.7 132 400 134C433.3 136 466.7 154 500 169C533.3 184 566.7 196 600 197C633.3 198 666.7 188 700 187C733.3 186 766.7 194 800 192C833.3 190 866.7 178 883.3 172L900 166L900 74L883.3 79.5C866.7 85 833.3 96 800 94C766.7 92 733.3 77 700 81C666.7 85 633.3 108 600 120.5C566.7 133 533.3 135 500 128C466.7 121 433.3 105 400 102C366.7 99 333.3 109 300 101C266.7 93 233.3 67 200 62C166.7 57 133.3 73 100 82C66.7 91 33.3 93 16.7 94L0 95Z" fill="#b6c6f0"></path><path d="M0 187L16.7 187.5C33.3 188 66.7 189 100 193.5C133.3 198 166.7 206 200 205C233.3 204 266.7 194 300 187.5C333.3 181 366.7 178 400 180.5C433.3 183 466.7 191 500 205.5C533.3 220 566.7 241 600 240.5C633.3 240 666.7 218 700 216C733.3 214 766.7 232 800 229.5C833.3 227 866.7 204 883.3 192.5L900 181L900 164L883.3 170C866.7 176 833.3 188 800 190C766.7 192 733.3 184 700 185C666.7 186 633.3 196 600 195C566.7 194 533.3 182 500 167C466.7 152 433.3 134 400 132C366.7 130 333.3 144 300 155.5C266.7 167 233.3 176 200 177C166.7 178 133.3 171 100 160.5C66.7 150 33.3 136 16.7 129L0 122Z" fill="#89a2e9"></path><path d="M0 244L16.7 244.5C33.3 245 66.7 246 100 245.5C133.3 245 166.7 243 200 237.5C233.3 232 266.7 223 300 219.5C333.3 216 366.7 218 400 225C433.3 232 466.7 244 500 252.5C533.3 261 566.7 266 600 259C633.3 252 666.7 233 700 234.5C733.3 236 766.7 258 800 259C833.3 260 866.7 240 883.3 230L900 220L900 179L883.3 190.5C866.7 202 833.3 225 800 227.5C766.7 230 733.3 212 700 214C666.7 216 633.3 238 600 238.5C566.7 239 533.3 218 500 203.5C466.7 189 433.3 181 400 178.5C366.7 176 333.3 179 300 185.5C266.7 192 233.3 202 200 203C166.7 204 133.3 196 100 191.5C66.7 187 33.3 186 16.7 185.5L0 185Z" fill="#5c7ee0"></path><path d="M0 301L16.7 301C33.3 301 66.7 301 100 301C133.3 301 166.7 301 200 301C233.3 301 266.7 301 300 301C333.3 301 366.7 301 400 301C433.3 301 466.7 301 500 301C533.3 301 566.7 301 600 301C633.3 301 666.7 301 700 301C733.3 301 766.7 301 800 301C833.3 301 866.7 301 883.3 301L900 301L900 218L883.3 228C866.7 238 833.3 258 800 257C766.7 256 733.3 234 700 232.5C666.7 231 633.3 250 600 257C566.7 264 533.3 259 500 250.5C466.7 242 433.3 230 400 223C366.7 216 333.3 214 300 217.5C266.7 221 233.3 230 200 235.5C166.7 241 133.3 243 100 243.5C66.7 244 33.3 243 16.7 242.5L0 242Z" fill="#255ad4"></path></svg>