<svg id="visual" viewBox="0 0 450 250" width="450" height="250" xmlns="http://www.w3.org/2000/svg" xmlns:xlink="http://www.w3.org/1999/xlink" version="1.1"><path d="M0 64L9.3 61C18.7 58 37.3 52 56.2 54.5C75 57 94 68 112.8 68.5C131.7 69 150.3 59 169 62.7C187.7 66.3 206.3 83.7 225 88.7C243.7 93.7 262.3 86.3 281.2 77.7C300 69 319 59 337.8 64.3C356.7 69.7 375.3 90.3 394 102C412.7 113.7 431.3 116.3 440.7 117.7L450 119L450 0L440.7 0C431.3 0 412.7 0 394 0C375.3 0 356.7 0 337.8 0C319 0 300 0 281.2 0C262.3 0 243.7 0 225 0C206.3 0 187.7 0 169 0C150.3 0 131.7 0 112.8 0C94 0 75 0 56.2 0C37.3 0 18.7 0 9.3 0L0 0Z" fill="#e5eaf5"></path><path d="M0 114L9.3 108.2C18.7 102.3 37.3 90.7 56.2 89.3C75 88 94 97 112.8 101.2C131.7 105.3 150.3 104.7 169 108.5C187.7 112.3 206.3 120.7 225 122.7C243.7 124.7 262.3 120.3 281.2 117.8C300 115.3 319 114.7 337.8 123C356.7 131.3 375.3 148.7 394 156.2C412.7 163.7 431.3 161.3 440.7 160.2L450 159L450 117L440.7 115.7C431.3 114.3 412.7 111.7 394 100C375.3 88.3 356.7 67.7 337.8 62.3C319 57 300 67 281.2 75.7C262.3 84.3 243.7 91.7 225 86.7C206.3 81.7 187.7 64.3 169 60.7C150.3 57 131.7 67 112.8 66.5C94 66 75 55 56.2 52.5C37.3 50 18.7 56 9.3 59L0 62Z" fill="#a6baee"></path><path d="M0 159L9.3 154.3C18.7 149.7 37.3 140.3 56.2 138.2C75 136 94 141 112.8 142.7C131.7 144.3 150.3 142.7 169 144.8C187.7 147 206.3 153 225 158.5C243.7 164 262.3 169 281.2 167.3C300 165.7 319 157.3 337.8 164.3C356.7 171.3 375.3 193.7 394 204.5C412.7 215.3 431.3 214.7 440.7 214.3L450 214L450 157L440.7 158.2C431.3 159.3 412.7 161.7 394 154.2C375.3 146.7 356.7 129.3 337.8 121C319 112.7 300 113.3 281.2 115.8C262.3 118.3 243.7 122.7 225 120.7C206.3 118.7 187.7 110.3 169 106.5C150.3 102.7 131.7 103.3 112.8 99.2C94 95 75 86 56.2 87.3C37.3 88.7 18.7 100.3 9.3 106.2L0 112Z" fill="#6b8ae3"></path><path d="M0 251L9.3 251C18.7 251 37.3 251 56.2 251C75 251 94 251 112.8 251C131.7 251 150.3 251 169 251C187.7 251 206.3 251 225 251C243.7 251 262.3 251 281.2 251C300 251 319 251 337.8 251C356.7 251 375.3 251 394 251C412.7 251 431.3 251 440.7 251L450 251L450 212L440.7 212.3C431.3 212.7 412.7 213.3 394 202.5C375.3 191.7 356.7 169.3 337.8 162.3C319 155.3 300 163.7 281.2 165.3C262.3 167 243.7 162 225 156.5C206.3 151 187.7 145 169 142.8C150.3 140.7 131.7 142.3 112.8 140.7C94 139 75 134 56.2 136.2C37.3 138.3 18.7 147.7 9.3 152.3L0 157Z" fill="#255ad4"></path></svg>