<svg id="visual" viewBox="0 0 900 300" width="900" height="300" xmlns="http://www.w3.org/2000/svg" xmlns:xlink="http://www.w3.org/1999/xlink" version="1.1"><path d="M0 97L11.5 98.5C23 100 46 103 69 99.5C92 96 115 86 138.2 83C161.3 80 184.7 84 207.8 81C231 78 254 68 277 61.5C300 55 323 52 346 53.5C369 55 392 61 415.2 66.5C438.3 72 461.7 77 484.8 79C508 81 531 80 554 86C577 92 600 105 623 105C646 105 669 92 692.2 84.5C715.3 77 738.7 75 761.8 73.5C785 72 808 71 831 70C854 69 877 68 888.5 67.5L900 67L900 0L888.5 0C877 0 854 0 831 0C808 0 785 0 761.8 0C738.7 0 715.3 0 692.2 0C669 0 646 0 623 0C600 0 577 0 554 0C531 0 508 0 484.8 0C461.7 0 438.3 0 415.2 0C392 0 369 0 346 0C323 0 300 0 277 0C254 0 231 0 207.8 0C184.7 0 161.3 0 138.2 0C115 0 92 0 69 0C46 0 23 0 11.5 0L0 0Z" fill="#e5eaf5"></path><path d="M0 136L11.5 136C23 136 46 136 69 135C92 134 115 132 138.2 135.5C161.3 139 184.7 148 207.8 145C231 142 254 127 277 115C300 103 323 94 346 96C369 98 392 111 415.2 115C438.3 119 461.7 114 484.8 112C508 110 531 111 554 118C577 125 600 138 623 143C646 148 669 145 692.2 137.5C715.3 130 738.7 118 761.8 113.5C785 109 808 112 831 112.5C854 113 877 111 888.5 110L900 109L900 65L888.5 65.5C877 66 854 67 831 68C808 69 785 70 761.8 71.5C738.7 73 715.3 75 692.2 82.5C669 90 646 103 623 103C600 103 577 90 554 84C531 78 508 79 484.8 77C461.7 75 438.3 70 415.2 64.5C392 59 369 53 346 51.5C323 50 300 53 277 59.5C254 66 231 76 207.8 79C184.7 82 161.3 78 138.2 81C115 84 92 94 69 97.5C46 101 23 98 11.5 96.5L0 95Z" fill="#b0c1eb"></path><path d="M0 157L11.5 158.5C23 160 46 163 69 161.5C92 160 115 154 138.2 156.5C161.3 159 184.7 170 207.8 167C231 164 254 147 277 135.5C300 124 323 118 346 120C369 122 392 132 415.2 137C438.3 142 461.7 142 484.8 140.5C508 139 531 136 554 143C577 150 600 167 623 171.5C646 176 669 168 692.2 161.5C715.3 155 738.7 150 761.8 146C785 142 808 139 831 138.5C854 138 877 140 888.5 141L900 142L900 107L888.5 108C877 109 854 111 831 110.5C808 110 785 107 761.8 111.5C738.7 116 715.3 128 692.2 135.5C669 143 646 146 623 141C600 136 577 123 554 116C531 109 508 108 484.8 110C461.7 112 438.3 117 415.2 113C392 109 369 96 346 94C323 92 300 101 277 113C254 125 231 140 207.8 143C184.7 146 161.3 137 138.2 133.5C115 130 92 132 69 133C46 134 23 134 11.5 134L0 134Z" fill="#7c99df"></path><path d="M0 187L11.5 190C23 193 46 199 69 196.5C92 194 115 183 138.2 184.5C161.3 186 184.7 200 207.8 199.5C231 199 254 184 277 173C300 162 323 155 346 154.5C369 154 392 160 415.2 163C438.3 166 461.7 166 484.8 165.5C508 165 531 164 554 170C577 176 600 189 623 195C646 201 669 200 692.2 194C715.3 188 738.7 177 761.8 169.5C785 162 808 158 831 160C854 162 877 170 888.5 174L900 178L900 140L888.5 139C877 138 854 136 831 136.5C808 137 785 140 761.8 144C738.7 148 715.3 153 692.2 159.5C669 166 646 174 623 169.5C600 165 577 148 554 141C531 134 508 137 484.8 138.5C461.7 140 438.3 140 415.2 135C392 130 369 120 346 118C323 116 300 122 277 133.5C254 145 231 162 207.8 165C184.7 168 161.3 157 138.2 154.5C115 152 92 158 69 159.5C46 161 23 158 11.5 156.5L0 155Z" fill="#7c99df"></path><path d="M0 226L11.5 228C23 230 46 234 69 232.5C92 231 115 224 138.2 225C161.3 226 184.7 235 207.8 235.5C231 236 254 228 277 220.5C300 213 323 206 346 206.5C369 207 392 215 415.2 218C438.3 221 461.7 219 484.8 217C508 215 531 213 554 217.5C577 222 600 233 623 239C646 245 669 246 692.2 239C715.3 232 738.7 217 761.8 206.5C785 196 808 190 831 193C854 196 877 208 888.5 214L900 220L900 176L888.5 172C877 168 854 160 831 158C808 156 785 160 761.8 167.5C738.7 175 715.3 186 692.2 192C669 198 646 199 623 193C600 187 577 174 554 168C531 162 508 163 484.8 163.5C461.7 164 438.3 164 415.2 161C392 158 369 152 346 152.5C323 153 300 160 277 171C254 182 231 197 207.8 197.5C184.7 198 161.3 184 138.2 182.5C115 181 92 192 69 194.5C46 197 23 191 11.5 188L0 185Z" fill="#b0c1eb"></path><path d="M0 301L11.5 301C23 301 46 301 69 301C92 301 115 301 138.2 301C161.3 301 184.7 301 207.8 301C231 301 254 301 277 301C300 301 323 301 346 301C369 301 392 301 415.2 301C438.3 301 461.7 301 484.8 301C508 301 531 301 554 301C577 301 600 301 623 301C646 301 669 301 692.2 301C715.3 301 738.7 301 761.8 301C785 301 808 301 831 301C854 301 877 301 888.5 301L900 301L900 218L888.5 212C877 206 854 194 831 191C808 188 785 194 761.8 204.5C738.7 215 715.3 230 692.2 237C669 244 646 243 623 237C600 231 577 220 554 215.5C531 211 508 213 484.8 215C461.7 217 438.3 219 415.2 216C392 213 369 205 346 204.5C323 204 300 211 277 218.5C254 226 231 234 207.8 233.5C184.7 233 161.3 224 138.2 223C115 222 92 229 69 230.5C46 232 23 228 11.5 226L0 224Z" fill="#e5eaf5"></path></svg>