<svg id="visual" viewBox="0 0 900 600" width="900" height="600" xmlns="http://www.w3.org/2000/svg" xmlns:xlink="http://www.w3.org/1999/xlink" version="1.1"><path d="M0 193L11.5 196C23 199 46 205 69 198C92 191 115 171 138.2 165C161.3 159 184.7 167 207.8 161C231 155 254 135 277 122C300 109 323 103 346 106C369 109 392 121 415.2 132C438.3 143 461.7 153 484.8 157C508 161 531 159 554 171C577 183 600 209 623 209C646 209 669 183 692.2 168C715.3 153 738.7 149 761.8 146C785 143 808 141 831 139C854 137 877 135 888.5 134L900 133L900 0L888.5 0C877 0 854 0 831 0C808 0 785 0 761.8 0C738.7 0 715.3 0 692.2 0C669 0 646 0 623 0C600 0 577 0 554 0C531 0 508 0 484.8 0C461.7 0 438.3 0 415.2 0C392 0 369 0 346 0C323 0 300 0 277 0C254 0 231 0 207.8 0C184.7 0 161.3 0 138.2 0C115 0 92 0 69 0C46 0 23 0 11.5 0L0 0Z" fill="#0a0f1a"></path><path d="M0 271L11.5 271C23 271 46 271 69 269C92 267 115 263 138.2 270C161.3 277 184.7 295 207.8 289C231 283 254 253 277 229C300 205 323 187 346 191C369 195 392 221 415.2 229C438.3 237 461.7 227 484.8 223C508 219 531 221 554 235C577 249 600 275 623 285C646 295 669 289 692.2 274C715.3 259 738.7 235 761.8 226C785 217 808 223 831 224C854 225 877 221 888.5 219L900 217L900 131L888.5 132C877 133 854 135 831 137C808 139 785 141 761.8 144C738.7 147 715.3 151 692.2 166C669 181 646 207 623 207C600 207 577 181 554 169C531 157 508 159 484.8 155C461.7 151 438.3 141 415.2 130C392 119 369 107 346 104C323 101 300 107 277 120C254 133 231 153 207.8 159C184.7 165 161.3 157 138.2 163C115 169 92 189 69 196C46 203 23 197 11.5 194L0 191Z" fill="#12274c"></path><path d="M0 313L11.5 316C23 319 46 325 69 322C92 319 115 307 138.2 312C161.3 317 184.7 339 207.8 333C231 327 254 293 277 270C300 247 323 235 346 239C369 243 392 263 415.2 273C438.3 283 461.7 283 484.8 280C508 277 531 271 554 285C577 299 600 333 623 342C646 351 669 335 692.2 322C715.3 309 738.7 299 761.8 291C785 283 808 277 831 276C854 275 877 279 888.5 281L900 283L900 215L888.5 217C877 219 854 223 831 222C808 221 785 215 761.8 224C738.7 233 715.3 257 692.2 272C669 287 646 293 623 283C600 273 577 247 554 233C531 219 508 217 484.8 221C461.7 225 438.3 235 415.2 227C392 219 369 193 346 189C323 185 300 203 277 227C254 251 231 281 207.8 287C184.7 293 161.3 275 138.2 268C115 261 92 265 69 267C46 269 23 269 11.5 269L0 269Z" fill="#203e83"></path><path d="M0 373L11.5 379C23 385 46 397 69 392C92 387 115 365 138.2 368C161.3 371 184.7 399 207.8 398C231 397 254 367 277 345C300 323 323 309 346 308C369 307 392 319 415.2 325C438.3 331 461.7 331 484.8 330C508 329 531 327 554 339C577 351 600 377 623 389C646 401 669 399 692.2 387C715.3 375 738.7 353 761.8 338C785 323 808 315 831 319C854 323 877 339 888.5 347L900 355L900 281L888.5 279C877 277 854 273 831 274C808 275 785 281 761.8 289C738.7 297 715.3 307 692.2 320C669 333 646 349 623 340C600 331 577 297 554 283C531 269 508 275 484.8 278C461.7 281 438.3 281 415.2 271C392 261 369 241 346 237C323 233 300 245 277 268C254 291 231 325 207.8 331C184.7 337 161.3 315 138.2 310C115 305 92 317 69 320C46 323 23 317 11.5 314L0 311Z" fill="#203e83"></path><path d="M0 451L11.5 455C23 459 46 467 69 464C92 461 115 447 138.2 449C161.3 451 184.7 469 207.8 470C231 471 254 455 277 440C300 425 323 411 346 412C369 413 392 429 415.2 435C438.3 441 461.7 437 484.8 433C508 429 531 425 554 434C577 443 600 465 623 477C646 489 669 491 692.2 477C715.3 463 738.7 433 761.8 412C785 391 808 379 831 385C854 391 877 415 888.5 427L900 439L900 353L888.5 345C877 337 854 321 831 317C808 313 785 321 761.8 336C738.7 351 715.3 373 692.2 385C669 397 646 399 623 387C600 375 577 349 554 337C531 325 508 327 484.8 328C461.7 329 438.3 329 415.2 323C392 317 369 305 346 306C323 307 300 321 277 343C254 365 231 395 207.8 396C184.7 397 161.3 369 138.2 366C115 363 92 385 69 390C46 395 23 383 11.5 377L0 371Z" fill="#12274c"></path><path d="M0 601L11.5 601C23 601 46 601 69 601C92 601 115 601 138.2 601C161.3 601 184.7 601 207.8 601C231 601 254 601 277 601C300 601 323 601 346 601C369 601 392 601 415.2 601C438.3 601 461.7 601 484.8 601C508 601 531 601 554 601C577 601 600 601 623 601C646 601 669 601 692.2 601C715.3 601 738.7 601 761.8 601C785 601 808 601 831 601C854 601 877 601 888.5 601L900 601L900 437L888.5 425C877 413 854 389 831 383C808 377 785 389 761.8 410C738.7 431 715.3 461 692.2 475C669 489 646 487 623 475C600 463 577 441 554 432C531 423 508 427 484.8 431C461.7 435 438.3 439 415.2 433C392 427 369 411 346 410C323 409 300 423 277 438C254 453 231 469 207.8 468C184.7 467 161.3 449 138.2 447C115 445 92 459 69 462C46 465 23 457 11.5 453L0 449Z" fill="#0a0f1a"></path></svg>