<svg id="visual" viewBox="0 0 900 300" width="900" height="300" xmlns="http://www.w3.org/2000/svg" xmlns:xlink="http://www.w3.org/1999/xlink" version="1.1"><path d="M0 269L18.8 271.8C37.7 274.7 75.3 280.3 112.8 282.7C150.3 285 187.7 284 225.2 279.5C262.7 275 300.3 267 337.8 247C375.3 227 412.7 195 450.2 193.2C487.7 191.3 525.3 219.7 562.8 232.3C600.3 245 637.7 242 675.2 228.3C712.7 214.7 750.3 190.3 787.8 177.5C825.3 164.7 862.7 163.3 881.3 162.7L900 162L900 301L881.3 301C862.7 301 825.3 301 787.8 301C750.3 301 712.7 301 675.2 301C637.7 301 600.3 301 562.8 301C525.3 301 487.7 301 450.2 301C412.7 301 375.3 301 337.8 301C300.3 301 262.7 301 225.2 301C187.7 301 150.3 301 112.8 301C75.3 301 37.7 301 18.8 301L0 301Z" fill="#dadfea" stroke-linecap="round" stroke-linejoin="miter"></path></svg>