<svg id="visual" viewBox="0 0 900 300" width="900" height="300" xmlns="http://www.w3.org/2000/svg" xmlns:xlink="http://www.w3.org/1999/xlink" version="1.1"><path d="M0 22L6.3 22.3C12.7 22.7 25.3 23.3 37.8 22.5C50.3 21.7 62.7 19.3 75.2 16.2C87.7 13 100.3 9 112.8 6.8C125.3 4.7 137.7 4.3 150.2 6.7C162.7 9 175.3 14 187.8 16.3C200.3 18.7 212.7 18.3 225.2 18C237.7 17.7 250.3 17.3 262.8 15.3C275.3 13.3 287.7 9.7 300.2 7.3C312.7 5 325.3 4 337.8 5.8C350.3 7.7 362.7 12.3 375.2 15.2C387.7 18 400.3 19 412.8 17.8C425.3 16.7 437.7 13.3 450 12C462.3 10.7 474.7 11.3 487.2 12.3C499.7 13.3 512.3 14.7 525 14.7C537.7 14.7 550.3 13.3 562.8 12.5C575.3 11.7 587.7 11.3 600.2 10C612.7 8.7 625.3 6.3 637.8 7.5C650.3 8.7 662.7 13.3 675.2 13.8C687.7 14.3 700.3 10.7 712.8 11.3C725.3 12 737.7 17 750.2 17.7C762.7 18.3 775.3 14.7 787.8 15.2C800.3 15.7 812.7 20.3 825.2 21.3C837.7 22.3 850.3 19.7 862.8 17.7C875.3 15.7 887.7 14.3 893.8 13.7L900 13L900 0L893.8 0C887.7 0 875.3 0 862.8 0C850.3 0 837.7 0 825.2 0C812.7 0 800.3 0 787.8 0C775.3 0 762.7 0 750.2 0C737.7 0 725.3 0 712.8 0C700.3 0 687.7 0 675.2 0C662.7 0 650.3 0 637.8 0C625.3 0 612.7 0 600.2 0C587.7 0 575.3 0 562.8 0C550.3 0 537.7 0 525 0C512.3 0 499.7 0 487.2 0C474.7 0 462.3 0 450 0C437.7 0 425.3 0 412.8 0C400.3 0 387.7 0 375.2 0C362.7 0 350.3 0 337.8 0C325.3 0 312.7 0 300.2 0C287.7 0 275.3 0 262.8 0C250.3 0 237.7 0 225.2 0C212.7 0 200.3 0 187.8 0C175.3 0 162.7 0 150.2 0C137.7 0 125.3 0 112.8 0C100.3 0 87.7 0 75.2 0C62.7 0 50.3 0 37.8 0C25.3 0 12.7 0 6.3 0L0 0Z" fill="#111725" stroke-linecap="round" stroke-linejoin="miter"></path></svg>