<svg id="visual" viewBox="0 0 1100 500" width="1100" height="500" xmlns="http://www.w3.org/2000/svg" xmlns:xlink="http://www.w3.org/1999/xlink" version="1.1"><path d="M0 161L14.2 163.5C28.3 166 56.7 171 84.8 165.2C113 159.3 141 142.7 169.2 137.7C197.3 132.7 225.7 139.3 253.8 134.3C282 129.3 310 112.7 338.2 101.8C366.3 91 394.7 86 423 88.5C451.3 91 479.7 101 507.8 110.2C536 119.3 564 127.7 592.2 131C620.3 134.3 648.7 132.7 677 142.7C705.3 152.7 733.7 174.3 761.8 174.3C790 174.3 818 152.7 846.2 140.2C874.3 127.7 902.7 124.3 930.8 121.8C959 119.3 987 117.7 1015.2 116C1043.3 114.3 1071.7 112.7 1085.8 111.8L1100 111L1100 0L1085.8 0C1071.7 0 1043.3 0 1015.2 0C987 0 959 0 930.8 0C902.7 0 874.3 0 846.2 0C818 0 790 0 761.8 0C733.7 0 705.3 0 677 0C648.7 0 620.3 0 592.2 0C564 0 536 0 507.8 0C479.7 0 451.3 0 423 0C394.7 0 366.3 0 338.2 0C310 0 282 0 253.8 0C225.7 0 197.3 0 169.2 0C141 0 113 0 84.8 0C56.7 0 28.3 0 14.2 0L0 0Z" fill="#e5eaf5"></path><path d="M0 226L14.2 226C28.3 226 56.7 226 84.8 224.3C113 222.7 141 219.3 169.2 225.2C197.3 231 225.7 246 253.8 241C282 236 310 211 338.2 191C366.3 171 394.7 156 423 159.3C451.3 162.7 479.7 184.3 507.8 191C536 197.7 564 189.3 592.2 186C620.3 182.7 648.7 184.3 677 196C705.3 207.7 733.7 229.3 761.8 237.7C790 246 818 241 846.2 228.5C874.3 216 902.7 196 930.8 188.5C959 181 987 186 1015.2 186.8C1043.3 187.7 1071.7 184.3 1085.8 182.7L1100 181L1100 109L1085.8 109.8C1071.7 110.7 1043.3 112.3 1015.2 114C987 115.7 959 117.3 930.8 119.8C902.7 122.3 874.3 125.7 846.2 138.2C818 150.7 790 172.3 761.8 172.3C733.7 172.3 705.3 150.7 677 140.7C648.7 130.7 620.3 132.3 592.2 129C564 125.7 536 117.3 507.8 108.2C479.7 99 451.3 89 423 86.5C394.7 84 366.3 89 338.2 99.8C310 110.7 282 127.3 253.8 132.3C225.7 137.3 197.3 130.7 169.2 135.7C141 140.7 113 157.3 84.8 163.2C56.7 169 28.3 164 14.2 161.5L0 159Z" fill="#b0c1eb"></path><path d="M0 261L14.2 263.5C28.3 266 56.7 271 84.8 268.5C113 266 141 256 169.2 260.2C197.3 264.3 225.7 282.7 253.8 277.7C282 272.7 310 244.3 338.2 225.2C366.3 206 394.7 196 423 199.3C451.3 202.7 479.7 219.3 507.8 227.7C536 236 564 236 592.2 233.5C620.3 231 648.7 226 677 237.7C705.3 249.3 733.7 277.7 761.8 285.2C790 292.7 818 279.3 846.2 268.5C874.3 257.7 902.7 249.3 930.8 242.7C959 236 987 231 1015.2 230.2C1043.3 229.3 1071.7 232.7 1085.8 234.3L1100 236L1100 179L1085.8 180.7C1071.7 182.3 1043.3 185.7 1015.2 184.8C987 184 959 179 930.8 186.5C902.7 194 874.3 214 846.2 226.5C818 239 790 244 761.8 235.7C733.7 227.3 705.3 205.7 677 194C648.7 182.3 620.3 180.7 592.2 184C564 187.3 536 195.7 507.8 189C479.7 182.3 451.3 160.7 423 157.3C394.7 154 366.3 169 338.2 189C310 209 282 234 253.8 239C225.7 244 197.3 229 169.2 223.2C141 217.3 113 220.7 84.8 222.3C56.7 224 28.3 224 14.2 224L0 224Z" fill="#7c99df"></path><path d="M0 311L14.2 316C28.3 321 56.7 331 84.8 326.8C113 322.7 141 304.3 169.2 306.8C197.3 309.3 225.7 332.7 253.8 331.8C282 331 310 306 338.2 287.7C366.3 269.3 394.7 257.7 423 256.8C451.3 256 479.7 266 507.8 271C536 276 564 276 592.2 275.2C620.3 274.3 648.7 272.7 677 282.7C705.3 292.7 733.7 314.3 761.8 324.3C790 334.3 818 332.7 846.2 322.7C874.3 312.7 902.7 294.3 930.8 281.8C959 269.3 987 262.7 1015.2 266C1043.3 269.3 1071.7 282.7 1085.8 289.3L1100 296L1100 234L1085.8 232.3C1071.7 230.7 1043.3 227.3 1015.2 228.2C987 229 959 234 930.8 240.7C902.7 247.3 874.3 255.7 846.2 266.5C818 277.3 790 290.7 761.8 283.2C733.7 275.7 705.3 247.3 677 235.7C648.7 224 620.3 229 592.2 231.5C564 234 536 234 507.8 225.7C479.7 217.3 451.3 200.7 423 197.3C394.7 194 366.3 204 338.2 223.2C310 242.3 282 270.7 253.8 275.7C225.7 280.7 197.3 262.3 169.2 258.2C141 254 113 264 84.8 266.5C56.7 269 28.3 264 14.2 261.5L0 259Z" fill="#7c99df"></path><path d="M0 376L14.2 379.3C28.3 382.7 56.7 389.3 84.8 386.8C113 384.3 141 372.7 169.2 374.3C197.3 376 225.7 391 253.8 391.8C282 392.7 310 379.3 338.2 366.8C366.3 354.3 394.7 342.7 423 343.5C451.3 344.3 479.7 357.7 507.8 362.7C536 367.7 564 364.3 592.2 361C620.3 357.7 648.7 354.3 677 361.8C705.3 369.3 733.7 387.7 761.8 397.7C790 407.7 818 409.3 846.2 397.7C874.3 386 902.7 361 930.8 343.5C959 326 987 316 1015.2 321C1043.3 326 1071.7 346 1085.8 356L1100 366L1100 294L1085.8 287.3C1071.7 280.7 1043.3 267.3 1015.2 264C987 260.7 959 267.3 930.8 279.8C902.7 292.3 874.3 310.7 846.2 320.7C818 330.7 790 332.3 761.8 322.3C733.7 312.3 705.3 290.7 677 280.7C648.7 270.7 620.3 272.3 592.2 273.2C564 274 536 274 507.8 269C479.7 264 451.3 254 423 254.8C394.7 255.7 366.3 267.3 338.2 285.7C310 304 282 329 253.8 329.8C225.7 330.7 197.3 307.3 169.2 304.8C141 302.3 113 320.7 84.8 324.8C56.7 329 28.3 319 14.2 314L0 309Z" fill="#b0c1eb"></path><path d="M0 501L14.2 501C28.3 501 56.7 501 84.8 501C113 501 141 501 169.2 501C197.3 501 225.7 501 253.8 501C282 501 310 501 338.2 501C366.3 501 394.7 501 423 501C451.3 501 479.7 501 507.8 501C536 501 564 501 592.2 501C620.3 501 648.7 501 677 501C705.3 501 733.7 501 761.8 501C790 501 818 501 846.2 501C874.3 501 902.7 501 930.8 501C959 501 987 501 1015.2 501C1043.3 501 1071.7 501 1085.8 501L1100 501L1100 364L1085.8 354C1071.7 344 1043.3 324 1015.2 319C987 314 959 324 930.8 341.5C902.7 359 874.3 384 846.2 395.7C818 407.3 790 405.7 761.8 395.7C733.7 385.7 705.3 367.3 677 359.8C648.7 352.3 620.3 355.7 592.2 359C564 362.3 536 365.7 507.8 360.7C479.7 355.7 451.3 342.3 423 341.5C394.7 340.7 366.3 352.3 338.2 364.8C310 377.3 282 390.7 253.8 389.8C225.7 389 197.3 374 169.2 372.3C141 370.7 113 382.3 84.8 384.8C56.7 387.3 28.3 380.7 14.2 377.3L0 374Z" fill="#e5eaf5"></path></svg>